<svg width="84" height="87" viewBox="0 0 84 87" fill="none" xmlns="http://www.w3.org/2000/svg">
<circle cx="42" cy="42" r="42" fill="#121212"/>
<path d="M16.788 18.4H24.268V37.78H32.292V18.4H39.772V66H32.292V44.58H24.268V66H16.788V18.4Z" fill="white"/>
<path d="M55.9507 66.68C52.324 66.68 49.5587 65.66 47.6547 63.62C45.7507 61.5347 44.7987 58.5653 44.7987 54.712V29.688C44.7987 25.8347 45.7507 22.888 47.6547 20.848C49.5587 18.7627 52.324 17.72 55.9507 17.72C59.5774 17.72 62.3427 18.7627 64.2467 20.848C66.1507 22.888 67.1027 25.8347 67.1027 29.688V33.768H60.0307V29.212C60.0307 26.084 58.7387 24.52 56.1547 24.52C53.5707 24.52 52.2787 26.084 52.2787 29.212V55.256C52.2787 58.3387 53.5707 59.88 56.1547 59.88C58.7387 59.88 60.0307 58.3387 60.0307 55.256V45.94H56.2907V39.14H67.1027V54.712C67.1027 58.5653 66.1507 61.5347 64.2467 63.62C62.3427 65.66 59.5774 66.68 55.9507 66.68Z" fill="#D50000"/>
</svg>
